#!OML:ASF X:\für Bonn\!DataBase\2005_08_10_Bjorn_Final\c3d\bjorn.ASF
:FULLY-SPECIFIED
:DEGREES
47
root -20.9943 19.4452 -0.271151 -341.691 -88.6473 -13.6232
lowerback -12.5449 3.28371 -3.74374
upperback 4.91857 5.48743 -4.38986
thorax 12.5873 2.4627 -1.46276
lowerneck -1.97999 -5.26184 5.72005
upperneck 8.13762 -7.2465 -1.71168
head 2.66252 -3.51321 -1.7284
rclavicle 2.78299e-014 -6.36111e-015
rhumerus 28.5387 2.70741 -71.4519
rradius 85.8052
rwrist -8.91437
rhand -15.9994 9.9722
rfingers 7.12502
rthumb 10.2007 -19.7605
lclavicle 2.78299e-014 -6.36111e-015
lhumerus -21.1186 8.62838 79.4271
lradius 16.1504
lwrist -42.4397
lhand -14.514 0.782104
lfingers 7.12502
lthumb 11.6335 30.4392
rfemur -11.5524 -12.8937 16.2977
rtibia 24.5023
rfoot -9.59048 20.0006
rtoes 2.61113
lfemur -13.0743 16.7885 -17.1977
ltibia 25.0621
lfoot -7.40613 -17.4445
ltoes 4.48379
48
root -20.9905 19.4454 -0.27639 -339.543 -88.7243 -15.7866
lowerback -12.5381 3.44049 -3.75434
upperback 4.91241 5.71233 -4.54185
thorax 12.5966 2.57359 -1.5733
lowerneck -2.05962 -5.40505 5.79132
upperneck 8.31376 -7.46021 -1.59426
head 2.73003 -3.61105 -1.71518
rclavicle 2.14687e-014 -1.27222e-014
rhumerus 30.265 2.36063 -70.5154
rradius 83.3749
rwrist -9.00606
rhand -15.5098 9.75544
rfingers 7.12502
rthumb 10.673 -19.9535
lclavicle 2.14687e-014 -1.27222e-014
lhumerus -20.9947 8.40829 79.423
lradius 16.1429
lwrist -42.3539
lhand -14.9481 0.715246
lfingers 7.12502
lthumb 11.2148 30.3955
rfemur -11.5764 -12.8719 16.3409
rtibia 24.5228
rfoot -9.53328 20.0719
rtoes 2.68247
lfemur -13.045 16.822 -17.1502
ltibia 25.043
lfoot -7.42676 -17.362
ltoes 4.3913
49
root -20.9863 19.4464 -0.281919 -338.22 -88.7759 -17.1169
lowerback -12.5305 3.57782 -3.80147
upperback 4.90335 5.91534 -4.67749
thorax 12.597 2.67056 -1.65067
lowerneck -2.12705 -5.53822 5.83047
upperneck 8.49519 -7.65921 -1.47604
head 2.79917 -3.70215 -1.6959
rclavicle 5.00937e-014 -4.6118e-014
rhumerus 31.8888 2.08285 -69.4678
rradius 80.9031
rwrist -9.2509
rhand -15.0267 9.58997
rfingers 7.12502
rthumb 11.139 -20.0944
lclavicle 5.00937e-014 -4.6118e-014
lhumerus -20.8933 8.25083 79.4275
lradius 16.1454
lwrist -42.3196
lhand -15.4053 0.608841
lfingers 7.12502
lthumb 10.7739 30.3125
rfemur -11.6075 -12.9353 16.373
rtibia 24.5404
rfoot -9.47995 20.1793
rtoes 2.70186
lfemur -13.0335 16.7632 -17.1183
ltibia 25.0267
lfoot -7.43785 -17.2258
ltoes 4.43144
50
root -20.9834 19.4465 -0.288203 -336.107 -88.8232 -19.2463
lowerback -12.5068 3.73172 -3.81346
upperback 4.88167 6.13479 -4.83913
thorax 12.5813 2.7798 -1.77348
lowerneck -2.1453 -5.67425 5.92121
upperneck 8.65578 -7.86466 -1.32788
head 2.8517 -3.79434 -1.67323
rclavicle -4.45278e-014 6.99722e-014
rhumerus 33.3697 1.7729 -68.4534
rradius 78.4352
rwrist -9.42372
rhand -14.4467 9.3916
rfingers 7.12502
rthumb 11.6984 -20.2618
lclavicle -4.45278e-014 6.99722e-014
lhumerus -20.8171 7.85613 79.4331
lradius 16.196
lwrist -42.0723
lhand -15.8683 0.484587
lfingers 7.12502
lthumb 10.3272 30.211
rfemur -11.6233 -12.8923 16.4203
rtibia 24.5597
rfoot -9.45553 20.2076
rtoes 2.7164
lfemur -13.0039 16.7426 -17.0662
ltibia 25.0119
lfoot -7.45853 -17.1341
ltoes 4.38423
51
root -20.9807 19.4465 -0.29363 -333.99 -88.86 -21.3788
lowerback -12.495 3.86462 -3.84266
upperback 4.87152 6.32807 -4.97402
thorax 12.5815 2.87371 -1.86259
lowerneck -2.19479 -5.79833 5.96859
upperneck 8.84307 -8.05271 -1.20986
head 2.92048 -3.87923 -1.65504
rclavicle -6.83819e-014 4.13472e-014
rhumerus 34.8068 1.49655 -67.4255
rradius 75.958
rwrist -9.56102
rhand -13.7492 9.22463
rfingers 7.12502
rthumb 12.3709 -20.3893
lclavicle -6.83819e-014 4.13472e-014
lhumerus -20.7415 7.64131 79.4372
lradius 16.2501
lwrist -41.8961
lhand -16.3244 0.31653
lfingers 7.12502
lthumb 9.88717 30.0644
rfemur -11.6358 -12.8785 16.4639
rtibia 24.5802
rfoot -9.43404 20.2537
rtoes 2.76049
lfemur -12.9749 16.7418 -17.0129
ltibia 24.9956
lfoot -7.47127 -17.0701
ltoes 4.30778
52
root -20.9783 19.4472 -0.299807 -332.111 -88.8835 -23.2731
lowerback -12.4786 3.99363 -3.87577
upperback 4.85643 6.5166 -5.1178
thorax 12.5746 2.96557 -1.96084
lowerneck -2.20704 -5.91596 6.03862
upperneck 9.01012 -8.23338 -1.06808
head 2.97629 -3.95934 -1.63071
rclavicle 2.18663e-014 -3.33958e-014
rhumerus 36.113 1.24183 -66.4032
rradius 73.5573
rwrist -9.74594
rhand -13.0316 9.00433
rfingers 7.12502
rthumb 13.0627 -20.5666
lclavicle 2.18663e-014 -3.33958e-014
lhumerus -20.6969 7.27767 79.4496
lradius 16.3452
lwrist -41.5796
lhand -16.8031 0.109278
lfingers 7.12502
lthumb 9.42534 29.8785
rfemur -11.6444 -12.8905 16.5083
rtibia 24.5963
rfoot -9.39788 20.3069
rtoes 2.78221
lfemur -12.9533 16.7296 -16.9631
ltibia 24.9853
lfoot -7.49338 -16.9931
ltoes 4.19432
53
root -20.9761 19.4474 -0.30538 -330.995 -88.8978 -24.3899
lowerback -12.4721 4.09555 -3.93793
upperback 4.83385 6.67304 -5.25686
thorax 12.5612 3.03976 -2.04475
lowerneck -2.21868 -6.01143 6.11677
upperneck 9.19468 -8.38438 -0.94819
head 3.03824 -4.02468 -1.61489
rclavicle -2.94201e-014 6.52014e-014
rhumerus 37.3184 1.04261 -65.3916
rradius 71.2662
rwrist -10.0148
rhand -12.2242 8.77417
rfingers 7.12502
rthumb 13.8409 -20.7453
lclavicle -2.94201e-014 6.52014e-014
lhumerus -20.6729 6.99839 79.4459
lradius 16.4545
lwrist -41.2725
lhand -17.1843 -0.0726597
lfingers 7.12502
lthumb 9.05749 29.7129
rfemur -11.6669 -12.918 16.5439
rtibia 24.6157
rfoot -9.38039 20.3541
rtoes 2.6731
lfemur -12.9431 16.7189 -16.9284
ltibia 24.9722
lfoot -7.49602 -16.9571
ltoes 4.25372
54
root -20.9745 19.4472 -0.311458 -329.302 -88.9046 -26.105
lowerback -12.4433 4.19606 -3.99535
upperback 4.81491 6.82465 -5.39276
thorax 12.5389 3.11216 -2.13042
lowerneck -2.2299 -6.10897 6.2226
upperneck 9.38114 -8.53961 -0.838579
head 3.0994 -4.09136 -1.60725
rclavicle -2.8625e-014 2.38542e-014
rhumerus 38.4136 0.862878 -64.3568
rradius 69.0426
rwrist -10.4058
rhand -11.3315 8.52788
rfingers 7.12502
rthumb 14.7011 -20.9309
lclavicle -2.8625e-014 2.38542e-014
lhumerus -20.6587 6.76577 79.4124
lradius 16.5646
lwrist -40.9589
lhand -17.5642 -0.334063
lfingers 7.12502
lthumb 8.69091 29.467
rfemur -11.6644 -12.8851 16.5893
rtibia 24.6341
rfoot -9.38237 20.3556
rtoes 2.71321
lfemur -12.9129 16.707 -16.8745
ltibia 24.962
lfoot -7.53225 -16.9011
ltoes 4.05157
55
root -20.9732 19.4478 -0.316895 -328.113 -88.9174 -27.2944
lowerback -12.4523 4.26935 -4.08742
upperback 4.80078 6.94714 -5.5113
thorax 12.5381 3.16649 -2.18212
lowerneck -2.25221 -6.1766 6.3177
upperneck 9.56637 -8.65381 -0.748373
head 3.16359 -4.13833 -1.60381
rclavicle -3.33958e-014 0
rhumerus 39.4662 0.804158 -63.2701
rradius 66.8323
rwrist -10.7162
rhand -10.4428 8.34454
rfingers 7.12502
rthumb 15.5572 -21.0497
lclavicle -3.33958e-014 0
lhumerus -20.6712 6.48739 79.4148
lradius 16.7181
lwrist -40.5209
lhand -17.8767 -0.52384
lfingers 7.12502
lthumb 8.38928 29.2896
rfemur -11.684 -12.9423 16.6195
rtibia 24.6501
rfoot -9.33392 20.4391
rtoes 2.75825
lfemur -12.9033 16.7174 -16.8394
ltibia 24.9555
lfoot -7.5288 -16.8719
ltoes 4.06438
56
root -20.9725 19.4475 -0.322987 -326.666 -88.9101 -28.7572
lowerback -12.4368 4.33581 -4.16558
upperback 4.77964 7.05579 -5.63627
thorax 12.5168 3.21631 -2.25353
lowerneck -2.24303 -6.24169 6.44014
upperneck 9.74644 -8.76454 -0.659676
head 3.2193 -4.18295 -1.60373
rclavicle -6.79844e-014 -1.59028e-015
rhumerus 40.4228 0.81868 -62.1351
rradius 64.6855
rwrist -11.0504
rhand -9.47564 7.97635
rfingers 7.12502
rthumb 16.4885 -21.343
lclavicle -6.79844e-014 -1.59028e-015
lhumerus -20.6913 6.22276 79.3736
lradius 16.8493
lwrist -40.0635
lhand -18.1378 -0.734779
lfingers 7.12502
lthumb 8.1373 29.0885
rfemur -11.6775 -12.9207 16.6662
rtibia 24.6664
rfoot -9.33047 20.4383
rtoes 2.79049
lfemur -12.8802 16.772 -16.785
ltibia 24.9502
lfoot -7.52925 -16.9022
ltoes 4.00871
57
root -20.9719 19.4474 -0.327951 -325.072 -88.9068 -30.3521
lowerback -12.4434 4.39112 -4.25014
upperback 4.76075 7.15152 -5.74984
thorax 12.5089 3.25862 -2.31038
lowerneck -2.27067 -6.29821 6.5388
upperneck 9.94953 -8.86718 -0.565936
head 3.29166 -4.2231 -1.6005
rclavicle 3.65764e-014 -4.77083e-015
rhumerus 41.3953 0.935972 -60.8804
rradius 62.6063
rwrist -11.6385
rhand -8.34875 7.18679
rfingers 7.12502
rthumb 17.5732 -22.039
lclavicle 3.65764e-014 -4.77083e-015
lhumerus -20.6965 6.18146 79.3045
lradius 16.9414
lwrist -39.7914
lhand -18.3635 -0.929986
lfingers 7.12502
lthumb 7.91953 28.9017
rfemur -11.6912 -12.9255 16.7117
rtibia 24.6838
rfoot -9.27786 20.4637
rtoes 2.93417
lfemur -12.8699 16.7635 -16.7352
ltibia 24.9438
lfoot -7.54389 -16.8672
ltoes 3.92898
58
root -20.972 19.4477 -0.333765 -323.628 -88.8975 -31.8112
lowerback -12.4361 4.44574 -4.33831
upperback 4.73986 7.24525 -5.8633
thorax 12.4898 3.29996 -2.36662
lowerneck -2.24992 -6.35367 6.61761
upperneck 10.146 -8.9652 -0.464089
head 3.35427 -4.26168 -1.58871
rclavicle -1.86858e-014 2.38542e-014
rhumerus 42.3103 1.20178 -59.4204
rradius 60.5512
rwrist -12.2395
rhand -7.43394 6.23047
rfingers 7.12502
rthumb 18.4534 -22.9142
lclavicle -1.86858e-014 2.38542e-014
lhumerus -20.7397 6.0639 79.2349
lradius 17.044
lwrist -39.4745
lhand -18.5134 -1.07545
lfingers 7.12502
lthumb 7.77482 28.7616
rfemur -11.6882 -12.9524 16.7599
rtibia 24.6978
rfoot -9.27604 20.4961
rtoes 2.8493
lfemur -12.8433 16.7968 -16.6801
ltibia 24.9442
lfoot -7.56468 -16.8662
ltoes 3.82595
59
root -20.9721 19.4475 -0.339126 -323.312 -88.8843 -32.1271
lowerback -12.4501 4.48168 -4.45705
upperback 4.72734 7.31973 -5.95759
thorax 12.486 3.32834 -2.38785
lowerneck -2.26347 -6.39992 6.61979
upperneck 10.3706 -9.05409 -0.331102
head 3.43857 -4.29596 -1.55659
rclavicle 6.12257e-014 -3.18055e-015
rhumerus 43.2069 1.55409 -57.7817
rradius 58.6235
rwrist -13.1292
rhand -6.50707 5.13372
rfingers 7.12502
rthumb 19.3449 -23.9241
lclavicle 6.12257e-014 -3.18055e-015
lhumerus -20.7954 5.97577 79.1887
lradius 17.1481
lwrist -39.139
lhand -18.6533 -1.20217
lfingers 7.12502
lthumb 7.63984 28.6398
rfemur -11.6975 -12.9996 16.7891
rtibia 24.7151
rfoot -9.24771 20.5469
rtoes 2.90999
lfemur -12.8381 16.7501 -16.646
ltibia 24.9411
lfoot -7.5914 -16.829
ltoes 3.79564
